<svg width="32" height="32" viewBox="0 0 32 32" fill="none" xmlns="http://www.w3.org/2000/svg">
<path d="M16.0012 1.2793C7.8792 1.2793 1.28125 7.87725 1.28125 15.9993C1.28125 24.1213 7.8792 30.7193 16.0012 30.7193C24.1233 30.7193 30.7212 24.1213 30.7212 15.9993C30.7212 7.87725 24.1233 1.2793 16.0012 1.2793ZM16.0012 2.5593C23.4315 2.5593 29.4412 8.56901 29.4412 15.9993C29.4412 23.4296 23.4315 29.4393 16.0012 29.4393C8.57096 29.4393 2.56125 23.4296 2.56125 15.9993C2.56125 8.56901 8.57096 2.5593 16.0012 2.5593ZM16.0012 8.95555C15.9021 8.95555 15.8033 8.97825 15.7137 9.02305L4.19375 14.143C3.97615 14.2518 3.84125 14.4761 3.84125 14.7193C3.84125 14.9625 3.97615 15.1867 4.19375 15.2955L5.76125 16.3655V20.018C5.38057 20.2405 5.12125 20.6489 5.12125 21.1193C5.12125 21.8233 6.40125 23.6793 6.40125 23.6793C6.40125 23.6793 7.68125 21.8233 7.68125 21.1193C7.68125 20.6489 7.42193 20.2405 7.04125 20.018V17.2393L7.68125 17.6755V16.6393C7.68125 16.1593 7.79645 15.7561 8.00125 15.4105C9.18525 13.4393 13.3517 13.4393 16.0012 13.4393C18.574 13.4393 22.5805 13.4393 23.8925 15.2505C24.1677 15.6281 24.3212 16.0889 24.3212 16.6393V17.6755L27.8088 15.2893C28.0264 15.1869 28.1612 14.9625 28.1612 14.7193C28.1612 14.4761 28.0264 14.2518 27.8088 14.143L16.2887 9.02305C16.1992 8.97825 16.1004 8.95555 16.0012 8.95555ZM16.0012 14.7193C12.4172 14.7193 8.96125 14.9689 8.96125 16.6393V18.2068C10.0749 17.6948 12.142 17.2793 16.0012 17.2793C19.8604 17.2793 21.9277 17.6948 23.0413 18.2068V16.6393C23.0413 14.9689 19.5852 14.7193 16.0012 14.7193ZM16.0012 18.5593C14.1341 18.5593 12.3435 18.6942 11.0232 18.9342C9.70296 19.1742 8.96125 19.4998 8.96125 19.8393C8.96125 20.1788 9.70296 20.5043 11.0232 20.7444C12.3435 20.9844 14.1341 21.1193 16.0012 21.1193C17.8684 21.1193 19.659 20.9844 20.9793 20.7444C22.2995 20.5043 23.0413 20.1788 23.0413 19.8393C23.0413 19.4998 22.2995 19.1742 20.9793 18.9342C19.659 18.6942 17.8684 18.5593 16.0012 18.5593Z" fill="#98A2B3"/>
</svg>
