<svg width="32" height="32" viewBox="0 0 32 32" fill="none" xmlns="http://www.w3.org/2000/svg">
<path d="M7.68125 0C6.98125 0 6.40125 0.58 6.40125 1.28V2.56H2.56125C2.22625 2.56 1.88625 2.6825 1.64625 2.925C1.40375 3.165 1.28125 3.505 1.28125 3.84V29.44C1.28125 29.775 1.40375 30.115 1.64625 30.3575C1.88625 30.5975 2.22625 30.72 2.56125 30.72H29.4412C29.7762 30.72 30.1162 30.5975 30.3587 30.3575C30.5987 30.115 30.7212 29.775 30.7212 29.44V3.84C30.7212 3.505 30.5987 3.165 30.3587 2.925C30.1162 2.6825 29.7762 2.56 29.4412 2.56H25.6012V1.28C25.6012 0.58 25.0212 0 24.3212 0H23.0412C22.3412 0 21.7612 0.58 21.7612 1.28V2.56H10.2412V1.28C10.2412 0.58 9.66125 0 8.96125 0H7.68125ZM7.68125 1.28H8.96125V5.12H7.68125V1.28ZM23.0412 1.28H24.3212V5.12H23.0412V1.28ZM2.56125 3.84H6.40125V5.12C6.40125 5.82 6.98125 6.4 7.68125 6.4H8.96125C9.66125 6.4 10.2412 5.82 10.2412 5.12V3.84H21.7612V5.12C21.7612 5.82 22.3412 6.4 23.0412 6.4H24.3212C25.0212 6.4 25.6012 5.82 25.6012 5.12V3.84H29.4412V8.32H2.56125V3.84ZM2.56125 9.6H29.4412V29.44H2.56125V9.6ZM6.40125 12.16V26.88H25.6012V12.16H6.40125ZM7.68125 13.44H10.8812V16.64H7.68125V13.44ZM12.1612 13.44H15.3612V16.64H12.1612V13.44ZM16.6412 13.44H19.8412V16.64H16.6412V13.44ZM21.1212 13.44H24.3212V16.64H21.1212V13.44ZM7.68125 17.92H10.8812V21.12H7.68125V17.92ZM12.1612 17.92H15.3612V21.12H12.1612V17.92ZM16.6412 17.92H19.8412V21.12H16.6412V17.92ZM21.1212 17.92H24.3212V21.12H21.1212V17.92ZM7.68125 22.4H10.8812V25.6H7.68125V22.4ZM12.1612 22.4H15.3612V25.6H12.1612V22.4ZM16.6412 22.4H19.8412V25.6H16.6412V22.4ZM21.1212 22.4H24.3212V25.6H21.1212V22.4Z" fill="#98A2B3"/>
</svg>
