<svg width="32" height="32" viewBox="0 0 32 32" fill="none" xmlns="http://www.w3.org/2000/svg">
<path d="M24 6H8C6.6744 6.00159 5.40356 6.52888 4.46622 7.46622C3.52888 8.40356 3.00159 9.6744 3 11V21C3.00159 22.3256 3.52888 23.5964 4.46622 24.5338C5.40356 25.4711 6.6744 25.9984 8 26H24C25.3256 25.9984 26.5964 25.4711 27.5338 24.5338C28.4711 23.5964 28.9984 22.3256 29 21V11C28.9984 9.6744 28.4711 8.40356 27.5338 7.46622C26.5964 6.52888 25.3256 6.00159 24 6ZM24.53 12.848L18.65 16.523C17.8543 17.0169 16.9365 17.2786 16 17.2786C15.0635 17.2786 14.1457 17.0169 13.35 16.523L7.47 12.848C7.35838 12.7784 7.26155 12.6875 7.18506 12.5805C7.10857 12.4735 7.05391 12.3524 7.02419 12.2243C6.96418 11.9655 7.00944 11.6934 7.15 11.468C7.29056 11.2426 7.51493 11.0822 7.77373 11.0222C7.90187 10.9925 8.03461 10.9883 8.16438 11.0099C8.29414 11.0315 8.41838 11.0784 8.53 11.148L14.41 14.823C14.8875 15.1191 15.4382 15.276 16 15.276C16.5618 15.276 17.1125 15.1191 17.59 14.823L23.47 11.148C23.6954 11.0074 23.9675 10.9622 24.2263 11.0222C24.4851 11.0822 24.7094 11.2426 24.85 11.468C24.9906 11.6934 25.0358 11.9655 24.9758 12.2243C24.9158 12.4831 24.7554 12.7074 24.53 12.848Z" fill="white"/>
</svg>
