<svg width="32" height="32" viewBox="0 0 32 32" fill="none" xmlns="http://www.w3.org/2000/svg">
<path d="M16 4C15.448 4 15 4.448 15 5V19.1025L11.709 15.7949C11.3195 15.4034 10.6864 15.4005 10.2949 15.791C9.90392 16.1805 9.90152 16.8136 10.291 17.2051L15.291 22.2305C15.479 22.419 15.734 22.5254 16 22.5254C16.266 22.5254 16.521 22.4195 16.709 22.2305L21.709 17.2051C22.0985 16.8136 22.0961 16.1805 21.7051 15.791C21.3136 15.401 20.6805 15.4039 20.291 15.7949L17 19.1025V5C17 4.448 16.552 4 16 4ZM4.5 19C3.948 19 3.5 19.448 3.5 20V24C3.5 25.6545 4.8455 27 6.5 27H25.5C27.1545 27 28.5 25.6545 28.5 24V20C28.5 19.448 28.052 19 27.5 19C26.948 19 26.5 19.448 26.5 20V24C26.5 24.5515 26.0515 25 25.5 25H6.5C5.9485 25 5.5 24.5515 5.5 24V20C5.5 19.448 5.052 19 4.5 19Z" fill="white"/>
</svg>
