<svg width="38" height="38" viewBox="0 0 38 38" fill="none" xmlns="http://www.w3.org/2000/svg">
<path d="M19 2.375C9.82683 2.375 2.375 9.82683 2.375 19C2.375 28.1732 9.82683 35.625 19 35.625C28.1732 35.625 35.625 28.1732 35.625 19C35.625 9.82683 28.1732 2.375 19 2.375ZM18.2772 3.90536V10.3106H13.1044C13.3775 9.50516 13.686 8.75645 14.0249 8.07855C15.2145 5.69947 16.7218 4.25121 18.2772 3.90536ZM19.7228 3.90536C21.2782 4.25121 22.7855 5.69947 23.9751 8.07855C24.314 8.75645 24.6225 9.50516 24.8955 10.3106H19.7228V3.90536ZM14.7943 4.4136C14.0153 5.23163 13.3206 6.2543 12.7317 7.43196C12.2954 8.30464 11.9172 9.27513 11.5896 10.3106H6.55949C8.52544 7.49929 11.4136 5.38459 14.7943 4.4136ZM23.2057 4.4136C26.5864 5.38459 29.4746 7.49929 31.4405 10.3106H26.4104C26.0828 9.27513 25.7046 8.30464 25.2683 7.43196C24.6794 6.2543 23.9847 5.23163 23.2057 4.4136ZM5.6376 11.7873H11.1746C10.6841 13.7667 10.3992 15.9606 10.3473 18.2772H3.84324C3.95307 15.9358 4.58665 13.7325 5.6376 11.7873ZM12.6668 11.7873H18.2772V18.2772H11.7943C11.8497 15.9374 12.1551 13.7308 12.6668 11.7873ZM19.7228 11.7873H25.3332C25.8449 13.7308 26.1503 15.9374 26.2057 18.2772H19.7228V11.7873ZM26.8254 11.7873H32.3624C33.4134 13.7325 34.0469 15.9358 34.1568 18.2772H27.6527C27.6008 15.9606 27.3159 13.7667 26.8254 11.7873ZM3.8503 19.7228H10.3444C10.3951 22.0415 10.6839 24.2327 11.1746 26.2127H5.63901C4.58769 24.2682 3.96028 22.0641 3.8503 19.7228ZM11.7901 19.7228H18.2772V26.2127H12.6668C12.1549 24.2684 11.8446 22.0645 11.7901 19.7228ZM19.7228 19.7228H26.2099C26.1554 22.0645 25.8451 24.2684 25.3332 26.2127H19.7228V19.7228ZM27.6556 19.7228H34.1497C34.0397 22.0641 33.4123 24.2682 32.361 26.2127H26.8254C27.3161 24.2327 27.6049 22.0415 27.6556 19.7228ZM6.56372 27.6894H11.5896C11.9172 28.7249 12.2954 29.6954 12.7317 30.568C13.3206 31.7457 14.0153 32.7684 14.7943 33.5864C11.4148 32.6157 8.53001 30.4982 6.56372 27.6894ZM13.1044 27.6894H18.2772V34.0946C16.7218 33.7488 15.2145 32.3005 14.0249 29.9214C13.686 29.2435 13.3775 28.4948 13.1044 27.6894ZM19.7228 27.6894H24.8955C24.6225 28.4948 24.314 29.2435 23.9751 29.9214C22.7855 32.3005 21.2782 33.7488 19.7228 34.0946V27.6894ZM26.4104 27.6894H31.4363C29.47 30.4982 26.5852 32.6157 23.2057 33.5864C23.9847 32.7684 24.6794 31.7457 25.2683 30.568C25.7046 29.6954 26.0828 28.7249 26.4104 27.6894Z" fill="#001511"/>
</svg>
