<svg width="48" height="48" viewBox="0 0 48 48" fill="none" xmlns="http://www.w3.org/2000/svg">
<path d="M8.8575 38.1435C1.0475 30.3335 1.0475 17.6695 8.8575 9.85945C16.6675 2.04945 29.3315 2.04945 37.1415 9.85945C44.9515 17.6695 44.9515 30.3335 37.1415 38.1435C29.3315 45.9535 16.6675 45.9535 8.8575 38.1435Z" fill="#09914A"/>
<path d="M22.9998 24L22.8008 4.00101C33.8448 3.89101 42.8888 12.757 42.9988 23.801L22.9998 24Z" fill="url(#paint0_linear_742_1652)"/>
<path d="M23 41.0039C32.3888 41.0039 40 33.3927 40 24.0039C40 14.6151 32.3888 7.00391 23 7.00391C13.6112 7.00391 6 14.6151 6 24.0039C6 33.3927 13.6112 41.0039 23 41.0039Z" fill="#F2F2F2"/>
<path d="M23 36.7539C22.586 36.7539 22.25 36.4179 22.25 36.0039V24.0039C22.25 23.5899 22.586 23.2539 23 23.2539C23.414 23.2539 23.75 23.5899 23.75 24.0039V36.0039C23.75 36.4179 23.414 36.7539 23 36.7539Z" fill="#D83B01"/>
<path d="M22.9998 24.7533C22.8078 24.7533 22.6158 24.6803 22.4698 24.5333C22.1768 24.2403 22.1768 23.7653 22.4698 23.4723L30.9548 14.9873C31.2478 14.6943 31.7227 14.6943 32.0157 14.9873C32.3087 15.2803 32.3087 15.7553 32.0157 16.0483L23.5298 24.5333C23.3838 24.6803 23.1918 24.7533 22.9998 24.7533Z" fill="#45494D"/>
<path d="M22.9975 25.2539C22.8165 25.2539 22.6325 25.2149 22.4575 25.1309L14.6705 21.3959C14.0475 21.0969 13.7855 20.3509 14.0845 19.7279C14.3825 19.1059 15.1285 18.8409 15.7515 19.1419L23.5385 22.8769C24.1615 23.1759 24.4235 23.9219 24.1245 24.5449C23.9105 24.9919 23.4635 25.2539 22.9975 25.2539Z" fill="#45494D"/>
<path d="M23 26.0039C24.1046 26.0039 25 25.1085 25 24.0039C25 22.8993 24.1046 22.0039 23 22.0039C21.8954 22.0039 21 22.8993 21 24.0039C21 25.1085 21.8954 26.0039 23 26.0039Z" fill="#1E2021"/>
<path d="M35.5511 27.0581L40.7341 20.3351C41.0631 19.9091 41.7061 19.9091 42.0351 20.3351L47.2181 27.0581C47.6341 27.5981 47.2501 28.3811 46.5671 28.3801H36.2011C35.5201 28.3801 35.1351 27.5981 35.5511 27.0581Z" fill="#09914A"/>
<defs>
<linearGradient id="paint0_linear_742_1652" x1="42.0799" y1="23.6364" x2="24.69" y2="13.3868" gradientUnits="userSpaceOnUse">
<stop stop-color="#F2F2F2"/>
<stop offset="0.148" stop-color="#EEF1EF"/>
<stop offset="0.282" stop-color="#E4ECE8"/>
<stop offset="0.409" stop-color="#D1E4DA"/>
<stop offset="0.533" stop-color="#B7DAC8"/>
<stop offset="0.654" stop-color="#96CCB0"/>
<stop offset="0.773" stop-color="#6DBB92"/>
<stop offset="0.889" stop-color="#3EA770"/>
<stop offset="1" stop-color="#09914A"/>
</linearGradient>
</defs>
</svg>
